PathFileType	4	(X/Y/Z)	RBDS020\RBDS020runT25.trc
DataRate	CameraRate	NumFrames	NumMarkers	Units	OrigDataRate	OrigDataStartFrame	OrigNumFrames
150.000000	150.000000	6	33	mm	150.000000	0	4500
Frame#	Time	L.ASIS			L.Heel.Bottom			L.Heel.Lateral			L.Heel.Top			L.Iliac.Crest			L.MT1			L.MT5			L.PSIS			L.Shank.Bottom.Lateral			L.Shank.Bottom.Medial			L.Shank.Top.Lateral			L.Shank.Top.Medial			L.Thigh.Bottom.Lateral			L.Thigh.Bottom.Medial			L.Thigh.Top.Lateral			L.Thigh.Top.Medial			R.ASIS			R.ASY			R.Heel.Bottom			R.Heel.Lateral			R.Heel.Top			R.Iliac.Crest			R.MT1			R.MT5			R.PSIS			R.Shank.Bottom.Lateral			R.Shank.Bottom.Medial			R.Shank.Top.Lateral			R.Shank.Top.Medial			R.Thigh.Bottom.Lateral			R.Thigh.Bottom.Medial			R.Thigh.Top.Lateral			R.Thigh.Top.Medial			
		X1	Y1	Z1	X2	Y2	Z2	X3	Y3	Z3	X4	Y4	Z4	X5	Y5	Z5	X6	Y6	Z6	X7	Y7	Z7	X8	Y8	Z8	X9	Y9	Z9	X10	Y10	Z10	X11	Y11	Z11	X12	Y12	Z12	X13	Y13	Z13	X14	Y14	Z14	X15	Y15	Z15	X16	Y16	Z16	X17	Y17	Z17	X18	Y18	Z18	X19	Y19	Z19	X20	Y20	Z20	X21	Y21	Z21	X22	Y22	Z22	X23	Y23	Z23	X24	Y24	Z24	X25	Y25	Z25	X26	Y26	Z26	X27	Y27	Z27	X28	Y28	Z28	X29	Y29	Z29	X30	Y30	Z30	X31	Y31	Z31	X32	Y32	Z32	X33	Y33	Z33	

1	0	2239.898041484587	1028.051578810973	892.4813897288892	2007.788966932088	175.6018670843811	952.7972226204123	2036.637112626189	184.647130694983	908.1068364394888	2039.787442792372	211.5674499303634	952.7430001506103	2180.12398306331	1069.508035042953	848.7672417577413	2206.75435419427	78.26354697980778	961.3065898817113	2161.944243918852	92.889572619272	861.1581639046119	2076.662919662001	1053.841654300614	944.3477048841851	2145.059377377466	261.7611287863841	883.9187167985148	2114.199209034401	286.0249441895443	923.296861101961	2182.162593763393	332.1067411589703	870.8677342846711	2153.560996450477	355.8267739250935	909.957387050064	2297.324318648194	699.1127158834797	829.1197289248458	2237.235421052232	665.696671910017	853.5370640852991	2240.87779527288	792.3140509480893	818.0986988474127	2183.260133217069	760.5939289775148	841.6357897691049	2228.100419068109	1007.318520390821	1121.328977104351	1995.444778300765	85.61299855338697	1054.514507557128	1800.623974084444	77.08167247350238	1037.053837430824	1827.4117622876	86.28349064202229	1082.45493996992	1817.880082438715	116.4053784745394	1038.773038441904	2182.231870611667	1053.556129042814	1146.52108517248	2006.205055649116	47.66543012274303	1008.347804449144	1978.05957825071	41.67432616627602	1115.023860620656	2074.268104993248	1052.515150935641	1041.321102149275	1933.893829261202	208.7775661549043	1103.036114600657	1898.745541253178	234.4168476523992	1076.196754058048	1972.420317398248	282.2527532141227	1121.343929730997	1932.405150366152	305.9882435794187	1094.290733150085	2093.078614753448	637.1907422073946	1145.052693982933	2039.380447075539	642.5513194078185	1098.754157455568	2091.666337958896	747.3543843035336	1157.231438003567	2041.196093072545	751.8609386857237	1111.512259051653	
2	0.006666666666666667	2241.481932602008	1032.451921448795	892.5385172078321	2029.691787946871	162.5696521223247	954.3327896632704	2057.734932234106	172.9196022003285	909.3357137312897	2059.529182051141	200.2550714793427	953.8559676430382	2181.63563576878	1074.573996082054	848.5465337160946	2233.109789794366	76.2059718060076	963.2373024728812	2187.631853601891	87.62680115705075	863.0663492792902	2078.704453099781	1059.156193495684	943.5322116887417	2162.005346757566	255.4388305411143	884.6670891901557	2129.791461864133	278.246142071028	923.7429592229682	2195.039423539049	327.4144816630968	870.9873013572621	2165.149063875093	349.824893182238	909.8363298107682	2297.844945070255	703.2253472888838	829.408905001976	2237.739985543028	670.1764368981983	854.284441116769	2241.691391335456	796.5356602119357	817.9612586306821	2184.076441987307	765.2189996666768	841.867838810088	2229.216850392153	1010.788955499721	1120.923241768246	1982.706460111174	86.36254416061472	1055.669376542581	1788.075229855993	86.57765194777328	1037.374282085339	1814.995586721797	93.90001231546167	1083.045164697412	1806.921851166446	125.0253253067342	1039.558615442796	2184.244291521458	1058.224143983836	1145.616189863393	1991.768851021366	47.99148378640956	1008.879683794806	1962.809241346686	42.61153886185823	1115.447069990391	2076.077267993038	1057.629617818846	1040.490203947107	1922.42976404467	215.3708390015664	1104.339843175588	1887.757015563537	240.6954659263519	1076.485070709483	1960.838058343918	289.1294984820558	1122.183997080324	1921.260453625681	312.4587087702969	1094.219547819753	2086.150532440733	643.2843660631464	1144.947485980355	2033.496641468771	649.7814017596088	1097.705192261728	2087.093455293787	753.4635034375713	1156.780189959981	2037.807350943678	758.9254905102274	1110.039252420069	
3	0.01333333333333333	2243.065322143676	1036.730693694301	892.6218365040734	2051.655368855083	149.6745135393587	955.7520569398033	2078.931757746762	161.3152813360908	910.4802925646948	2079.328247955749	189.0317927400826	954.8760894171547	2183.190305576843	1079.548996908215	848.3567703058008	2259.344419458727	74.34020774910252	965.2141575321649	2213.337701225215	82.56611500170115	864.9874848785688	2080.752616108344	1064.396823549167	942.7326169248608	2178.940424354862	249.172697366598	885.3693104296448	2145.38525626368	270.4889125626623	924.1338088325107	2207.892841005825	322.7142375902858	871.0745812955171	2176.717412156858	343.7781425338309	909.6714217484115	2298.197296575352	707.12490903856	829.6882151569473	2238.060671335314	674.4859602704432	855.0263948887334	2242.398084856181	800.5788620601509	817.825959575876	2184.773703776254	769.7050805512935	842.121021516833	2230.343354840802	1014.204093971366	1120.530573207892	1970.025313707796	87.22233501894162	1056.815243338948	1775.714772154066	96.21018613550638	1037.793083569925	1802.760536560673	101.6764919390893	1083.708639920249	1796.151980750694	133.7536773856253	1040.419421673998	2186.259592067724	1062.828397711062	1144.727116872493	1977.392228711296	48.43825534369591	1009.425384922523	1947.673691617184	43.6918276640431	1115.910603237944	2077.88709543098	1062.691181135995	1039.686656535443	1911.204094308577	221.9360241973365	1105.664937563523	1876.992630852236	246.9688053956016	1076.849743408733	1949.54136043282	295.9452388231235	1123.050334175745	1910.385540923542	318.8990214544708	1094.228528660737	2079.416140291179	649.3066326858753	1144.855552352462	2027.809952236021	656.8853858110448	1096.663136115246	2082.663289231128	759.4869390348049	1156.318477113196	2034.559024323579	765.863629634429	1108.555970338611	
4	0.02	2244.647539103746	1040.781951788962	892.7565473690794	2073.804029781601	137.0428418943738	956.9632023105976	2100.369397498317	149.9524583166767	911.4731692832208	2099.285132501409	177.9794389874017	955.7289109139202	2184.825487054177	1084.351121339516	848.2222251509874	2285.389581386703	72.91283024748738	967.2585134512196	2239.113984663557	77.95180659296737	866.9170339802337	2082.809413554103	1069.502355081234	941.9623878128123	2195.878078494591	243.0422644109038	885.9893624214048	2161.011907523366	262.7992460498956	924.4301111778456	2220.717921364515	318.0221324740899	871.108288714059	2188.271754871313	337.667019964519	909.4352898651614	2298.226767070666	710.628473220124	829.9330065019864	2238.035079557065	678.4810853424339	855.751828090492	2242.898236062952	804.2921610287756	817.6858907100145	2185.245641401415	773.9353735648949	842.4106227090797	2231.487012519719	1017.521596664973	1120.16361534749	1957.435064369734	88.2905174529748	1057.939598365755	1763.695581253787	106.1026440704333	1038.407970424118	1790.855742777373	109.7541327935544	1084.519661156987	1785.724087463709	142.6868399115727	1041.430064805608	2188.274633518518	1067.320951798913	1143.868807585393	1963.108305081571	49.11727970580865	1009.992865941386	1932.742745671841	45.03627114217588	1116.445906806938	2079.693534829977	1067.658801884163	1038.934930915077	1900.420520385418	228.4417068699639	1107.032799046164	1866.639645444556	253.2313112919168	1077.366695382957	1938.779013164478	302.6405188062234	1123.969439036962	1900.01121385158	325.281159810172	1094.398029807632	2073.063763554072	655.1928418322782	1144.783908150127	2022.497107575314	663.7599047760275	1095.646915279726	2078.520540157888	765.3497140721561	1155.844088520361	2031.578728105724	772.5728453136031	1107.076788020795	
5	0.02666666666666667	2246.224647906181	1044.514437069952	892.9607468380772	2096.213973908612	124.7984614162445	957.9033761611131	2122.129877928222	138.9488066290612	912.2671927027553	2119.452680457815	167.1845780539654	956.3623307140425	2186.563141797867	1088.901965701468	848.1583942721168	2311.152194902117	72.1442593896716	969.3719541015987	2264.956285364339	74.0065087352453	868.8397841404751	2084.868785355543	1074.411548728963	941.2335669170212	2212.797448066963	237.131070637743	886.5022024530008	2176.671498683626	255.2365951231942	924.6087907176525	2233.484297676982	313.3677436828307	871.0769837436311	2199.796994978008	331.4952336465757	909.1153935382965	2297.818628821466	713.5920773786351	830.1140995696668	2237.546164886412	682.0451351468191	856.4453713310606	2243.116220855512	807.5538006851879	817.5293483019558	2185.414189642663	777.8120789598117	842.742976587214	2232.650636048653	1020.701932971292	1119.832371413394	1944.972697660178	89.64762297011225	1059.027493842696	1752.149381316048	116.3387576474536	1039.293876270199	1779.41171240692	118.2334420182014	1085.535032602809	1775.767478129771	151.8882936869327	1042.64518893685	2190.280137469233	1071.656818920167	1143.054099720571	1948.950812076572	50.12127298000529	1010.58622062569	1918.101211101566	46.73891784842552	1117.070217483426	2081.487685821079	1072.487913093902	1038.255591367866	1890.248718801748	234.8518700305363	1108.455043094438	1856.854356133401	259.4715241669224	1078.09353064925	1928.760468251512	309.1546279924276	1124.959151172769	1890.332146932654	331.5738369602677	1094.791598933459	2067.267853899653	660.8708273875303	1144.738156516774	2017.711865629221	670.3067932224679	1094.683790676429	2074.800524581903	770.9738023143198	1155.364142967021	2028.977111503634	778.9560907680681	1105.632242862045	
6	0.03333333333333333	2247.788523562359	1047.856191907216	893.2421832379785	2118.896056778517	113.0592125490116	958.5488359168462	2144.215419915822	128.4176510077106	912.843139734821	2139.820698848361	156.7372632716205	956.7549288209945	2188.404794301142	1093.127551384019	848.1695556269979	2336.507616452581	72.21442888737303	971.5310693692153	2290.7853567712	70.91717665099139	870.7279507788849	2086.915062721447	1079.061745788623	940.557121351481	2229.632608613155	231.5235560770822	886.8974823901876	2192.322619081284	247.8739660838717	924.6680485019305	2246.128082487884	308.7943509589078	870.9820980876937	2211.250287214307	325.2932116105312	908.7187368169697	2296.908637034149	715.9208824078278	830.1989444531519	2236.533954571467	685.0962956800449	857.0882209628993	2243.006921990516	810.2794886042251	817.3398772513344	2185.236874684505	781.2615450823174	843.1143334776372	2233.832777311181	1023.707873342374	1119.54296529	1932.67671970185	91.35343686370446	1060.062524156419	1741.178582643743	126.9561731799525	1040.494037329709	1768.532033423056	127.1662276137219	1086.786952221297	1766.378421305905	161.3836953161389	1044.092336315053	2192.259714243844	1075.793234775236	1142.29333432728	1934.951934085994	51.52056469383426	1011.205517722335	1903.822620558076	48.86269639464289	1117.783766092462	2083.255696845939	1077.12747048194	1037.664835056657	1880.812522452593	241.1287828480403	1109.930937857396	1847.752552091521	265.6744278240935	1079.0628823034	1919.642688197268	315.4285853833306	1126.025730895738	1881.496167663615	337.7446172860668	1095.449206904348	2062.186141100056	666.2568170866857	1144.722660498118	2013.580587431389	676.4314345531626	1093.810862001376	2071.626866423077	776.2750515070003	1154.897404787816	2026.844083145772	784.9202825713216	1104.27255857131	
